<svg width="132" height="27" viewBox="0 0 132 27" fill="none" xmlns="http://www.w3.org/2000/svg">
<path d="M34.488 26H29.16L25.056 18.8H9.792L5.688 26H0.36L14.76 0.799998H20.088L34.488 26ZM22.572 14.48L17.424 5.444L12.276 14.48H22.572ZM36.6398 0.799998H64.9718V26H60.2918V5.12H41.3198V26H36.6398V0.799998ZM68.2017 7.64C68.2017 6.512 68.4177 5.504 68.8497 4.616C69.2817 3.704 69.8457 2.924 70.5417 2.276C71.2617 1.628 72.0777 1.136 72.9897 0.799998C73.9257 0.439999 74.8857 0.259999 75.8697 0.259999C76.8777 0.259999 77.8497 0.439999 78.7857 0.799998C79.7217 1.16 80.5377 1.664 81.2337 2.312C81.9297 2.96 82.4817 3.74 82.8897 4.652C83.3217 5.54 83.5377 6.536 83.5377 7.64V8.36H78.8577V7.64C78.8577 6.656 78.5457 5.912 77.9217 5.408C77.3217 4.88 76.6377 4.616 75.8697 4.616C75.1017 4.616 74.4057 4.88 73.7817 5.408C73.1817 5.912 72.8817 6.656 72.8817 7.64V19.16C72.8817 20.144 73.1817 20.9 73.7817 21.428C74.4057 21.932 75.1017 22.184 75.8697 22.184C76.6377 22.184 77.3217 21.932 77.9217 21.428C78.5457 20.9 78.8577 20.144 78.8577 19.16V18.476L83.5377 18.44V19.124C83.5377 20.228 83.3217 21.236 82.8897 22.148C82.4817 23.036 81.9297 23.804 81.2337 24.452C80.5377 25.1 79.7217 25.604 78.7857 25.964C77.8497 26.324 76.8777 26.504 75.8697 26.504C74.8857 26.504 73.9257 26.336 72.9897 26C72.0777 25.64 71.2617 25.136 70.5417 24.488C69.8457 23.84 69.2817 23.06 68.8497 22.148C68.4177 21.236 68.2017 20.228 68.2017 19.124V7.64ZM86.7727 0.799998H91.4527V14.66L97.4287 0.799998H102.109V26H97.4287V11.6L91.4527 26H86.7727V0.799998ZM105.002 13.4C105.002 11.744 105.278 10.136 105.83 8.576C106.382 6.992 107.21 5.588 108.314 4.364C109.442 3.14 110.834 2.156 112.49 1.412C114.146 0.643999 116.09 0.259999 118.322 0.259999C120.146 0.259999 121.778 0.523999 123.218 1.052C124.682 1.556 125.942 2.252 126.998 3.14C128.078 4.004 128.966 5.024 129.662 6.2C130.382 7.376 130.898 8.612 131.21 9.908H126.278C125.99 9.212 125.606 8.564 125.126 7.964C124.67 7.34 124.106 6.812 123.434 6.38C122.762 5.924 122.006 5.576 121.166 5.336C120.326 5.072 119.378 4.94 118.322 4.94C116.882 4.94 115.622 5.18 114.542 5.66C113.462 6.14 112.562 6.776 111.842 7.568C111.122 8.36 110.582 9.272 110.222 10.304C109.862 11.312 109.682 12.344 109.682 13.4C109.682 14.456 109.862 15.488 110.222 16.496C110.582 17.504 111.122 18.404 111.842 19.196C112.562 19.988 113.462 20.636 114.542 21.14C115.622 21.62 116.882 21.86 118.322 21.86C119.378 21.86 120.338 21.728 121.202 21.464C122.066 21.176 122.834 20.804 123.506 20.348C124.178 19.868 124.742 19.316 125.198 18.692C125.678 18.044 126.062 17.36 126.35 16.64H131.282C130.97 17.96 130.454 19.22 129.734 20.42C129.038 21.62 128.15 22.676 127.07 23.588C125.99 24.5 124.718 25.22 123.254 25.748C121.814 26.276 120.17 26.54 118.322 26.54C116.114 26.54 114.182 26.168 112.526 25.424C110.87 24.656 109.478 23.66 108.35 22.436C107.246 21.188 106.406 19.784 105.83 18.224C105.278 16.64 105.002 15.032 105.002 13.4Z" fill="url(#paint0_linear_7_42)"/>
<defs>
<linearGradient id="paint0_linear_7_42" x1="66.5" y1="-5" x2="66.5" y2="31" gradientUnits="userSpaceOnUse">
<stop stop-color="white"/>
<stop offset="1" stop-color="white" stop-opacity="0"/>
</linearGradient>
</defs>
</svg>
